<svg xmlns="http://www.w3.org/2000/svg" data-name="Layer 1" viewBox="0 0 64 64" id="celebrate"><polygon fill="#5c677d" points="53 21 32 61 29.78 56.77 27.76 52.93 25.24 48.13 23.23 44.29 20.71 39.49 18.69 35.66 16.14 30.79 14.13 26.96 14.13 26.95 11 21 53 21"></polygon><polygon fill="#ff70a6" points="48.28 21 29.78 56.77 27.76 52.93 44.28 21 48.28 21"></polygon><polygon fill="#68d8d6" points="39.28 21 25.24 48.13 23.23 44.29 35.28 21 39.28 21"></polygon><polygon fill="#ff70a6" points="30.28 21 20.71 39.49 18.69 35.66 26.28 21 30.28 21"></polygon><polygon fill="#68d8d6" points="21.21 21 16.14 30.79 14.13 26.96 14.13 26.95 17.21 21 21.21 21"></polygon><polygon fill="#c4fff9" points="32 3 33.236 5.633 36 6.056 34 8.106 34.472 11 32 9.633 29.528 11 30 8.106 28 6.056 30.764 5.633 32 3"></polygon><polygon fill="#c4fff9" points="58 5 58.927 6.975 61 7.292 59.5 8.829 59.854 11 58 9.975 56.146 11 56.5 8.829 55 7.292 57.073 6.975 58 5"></polygon><polygon fill="#c4fff9" points="6 5 5.073 6.975 3 7.292 4.5 8.829 4.146 11 6 9.975 7.854 11 7.5 8.829 9 7.292 6.927 6.975 6 5"></polygon><path d="M10.144 20.483a1 1 0 0 0-.029.982L17.767 36.04l.013.026 13.335 25.4a1 1 0 0 0 1.77 0l21-40A1 1 0 0 0 53 20H11A1 1 0 0 0 10.144 20.483zM51.346 22L32 58.849l-1.093-2.082L48.888 22zm-4.709 0L29.773 54.607l-.884-1.684L44.888 22zm-4 0L27.755 50.763l-1.386-2.639L39.888 22zm-5 0l-12.4 23.964-.879-1.675L35.888 22zm-4 0L23.222 42.129l-1.386-2.64L30.888 22zm-5 0L20.7 37.329l-.884-1.683L26.888 22zm-4 0L18.685 33.487l-1.417-2.7L21.818 22zm-5.07 0l-3.432 6.627-.877-1.67L17.819 22zm-4 0l-1.446 2.8L12.654 22zM31 15v2a1 1 0 0 0 2 0V15a1 1 0 0 0-2 0zM50.234 12.571a2.932 2.932 0 0 0 2.5-.889 1 1 0 0 0-1.462-1.364c-.248.264-.419.269-.972.254a2.926 2.926 0 0 0-2.5.888 3.254 3.254 0 0 0-.8 2.569c.016.584.011.855-.265 1.15-.245.263-.418.271-.969.252a2.937 2.937 0 0 0-2.5.887 1 1 0 1 0 1.462 1.364c.246-.263.418-.268.969-.252a2.916 2.916 0 0 0 2.5-.887 3.253 3.253 0 0 0 .8-2.568c-.016-.584-.012-.855.264-1.15C49.509 12.561 49.68 12.555 50.234 12.571zM36.948 5.738a1 1 0 0 0-.8-.671l-2.236-.341-1.01-2.151a1 1 0 0 0-1.81 0l-1.01 2.151-2.236.341a1 1 0 0 0-.565 1.687l1.648 1.688-.391 2.4a1 1 0 0 0 1.471 1.036L32 10.776l1.988 1.1a1 1 0 0 0 1.06-.058 1 1 0 0 0 .411-.978l-.391-2.4 1.648-1.688A1 1 0 0 0 36.948 5.738zM33.284 7.407a1 1 0 0 0-.271.86l.141.861-.67-.37a1 1 0 0 0-.968 0l-.67.37.141-.861a1 1 0 0 0-.271-.86l-.641-.657.84-.128a1 1 0 0 0 .754-.564l.331-.7.331.7a1 1 0 0 0 .754.564l.84.128zM61.948 6.975a1 1 0 0 0-.8-.671l-1.545-.237-.7-1.492a1 1 0 0 0-1.81 0l-.7 1.492L54.849 6.3a1 1 0 0 0-.565 1.686l1.148 1.177-.273 1.672a1 1 0 0 0 1.471 1.036L58 11.118l1.37.757a1 1 0 0 0 1.471-1.036l-.273-1.672L61.716 7.99A1 1 0 0 0 61.948 6.975zM58.784 8.131a1 1 0 0 0-.271.859l.023.138L58.484 9.1a1 1 0 0 0-.968 0l-.052.028.023-.138a1 1 0 0 0-.271-.859l-.141-.145.149-.023a1 1 0 0 0 .754-.563L58 7.353l.022.047a1 1 0 0 0 .754.563l.149.023zM3.432 9.167l-.273 1.672A1 1 0 0 0 4.63 11.875L6 11.118l1.37.757a1 1 0 0 0 1.471-1.036L8.568 9.167 9.716 7.99A1 1 0 0 0 9.151 6.3L7.606 6.067l-.7-1.492a1 1 0 0 0-1.81 0l-.7 1.492L2.849 6.3A1 1 0 0 0 2.284 7.99zm1.792-1.2A1 1 0 0 0 5.978 7.4L6 7.353l.022.047a1 1 0 0 0 .754.563l.149.023-.141.145a1 1 0 0 0-.271.859l.023.138L6.484 9.1a1 1 0 0 0-.968 0l-.052.028.023-.138a1 1 0 0 0-.271-.859l-.141-.145zM13.7 10.572c-.553.017-.725.011-.972-.254a1 1 0 0 0-1.462 1.364 2.93 2.93 0 0 0 2.5.889c.557-.017.725-.01.972.254.276.295.28.566.264 1.15a3.253 3.253 0 0 0 .8 2.568 2.916 2.916 0 0 0 2.5.887c.551-.016.723-.011.969.252a1 1 0 0 0 1.462-1.364 2.935 2.935 0 0 0-2.5-.887c-.55.019-.724.011-.969-.252-.276-.295-.281-.566-.265-1.15a3.254 3.254 0 0 0-.8-2.569A2.926 2.926 0 0 0 13.7 10.572zM38.707 15.707l2-2a1 1 0 0 0-1.414-1.414l-2 2a1 1 0 1 0 1.414 1.414zM45.293 4.293l-2 2a1 1 0 1 0 1.414 1.414l2-2a1 1 0 1 0-1.414-1.414zM26 16a1 1 0 0 0 .707-1.707l-2-2a1 1 0 0 0-1.414 1.414l2 2A1 1 0 0 0 26 16zM19.293 7.707a1 1 0 0 0 1.414-1.414l-2-2a1 1 0 0 0-1.414 1.414z"></path></svg>